# xmcd
# 
# Track frame offsets:
#     150
#     18015
#     36205
#     53437
#     68577
#     79795
#     92150
#     109857
#     123260
#     134997
#     151300
#     165125
#     183205
#     197395
#     213617
# 
# Disc length: 3008
# 
# Revision: 1
# Processed by: cddbd v1.5.2PL0 Copyright (c) Steve Scherf et al.
# Submitted via: fre:ac v1.0.17
# 
DISCID=b90bbe0f
DTITLE=Various Artist - The Sony Music Collection CD 5 - The Heartland
DYEAR=0
DGENRE=Country
TTITLE0=Rodney Crowell - Soul Searching
TTITLE1=Mary-Chapin Carpenter - Can't Take Love For Granted
TTITLE2=Darden Smith - Midnight Train
TTITLE3=Ricky Van Shelton - Somebody Lied
TTITLE4=Willie Nelson - On The Road Again
TTITLE5=Charlie Rich - The Most Beautiful Girl In The World
TTITLE6=Dolly Parton - Yellow Roses
TTITLE7=Lynn Anderson - Rose Garden
TTITLE8=Johnny Cash - I Walk The Line
TTITLE9=Charlie Daniels Band - The Devel Went Down To Georgia
TTITLE10=The HIghwaymen - The Highwaymen
TTITLE11=Chet Atkins and Mark Knopfler - Poor Boy Blues
TTITLE12=George Jones - The Grand Tour
TTITLE13=Willie Nelson - Blue Skies
TTITLE14=Tammy Wynette - Stand By Your Man
EXTD=
EXTT0=
EXTT1=
EXTT2=
EXTT3=
EXTT4=
EXTT5=
EXTT6=
EXTT7=
EXTT8=
EXTT9=
EXTT10=
EXTT11=
EXTT12=
EXTT13=
EXTT14=
PLAYORDER=
